/* XPM */
static char * run_xpm[] = {
"24 24 2 1",
" 	c None",
".	c #1EFF00",
"                        ",
"                        ",
"                        ",
"                        ",
"      ...               ",
"      ....              ",
"      .....             ",
"      ......            ",
"      .......           ",
"      ........          ",
"      .........         ",
"      ..........        ",
"      ..........        ",
"      .........         ",
"      ........          ",
"      .......           ",
"      .....             ",
"      .....             ",
"      ....              ",
"      ...               ",
"                        ",
"                        ",
"                        ",
"                        "};
